<?xml version="1.0" encoding="utf-8"?>
<!-- Generator: Adobe Illustrator 22.1.0, SVG Export Plug-In . SVG Version: 6.00 Build 0)  -->
<svg version="1.1" id="Layer_1" xmlns="http://www.w3.org/2000/svg" xmlns:xlink="http://www.w3.org/1999/xlink" x="0px" y="0px"
	 viewBox="0 0 110 110" style="enable-background:new 0 0 110 110;" xml:space="preserve">
<style type="text/css">
	.st0{fill:none;stroke:#278FCE;stroke-width:3;stroke-miterlimit:10;}
	.st1{fill:none;stroke:#278FCE;stroke-width:2;stroke-miterlimit:10;}
</style>
<path class="st0" d="M91.7,18.7c0-8-18.4-14.5-41.1-14.5S9.4,10.7,9.4,18.7v24.2c0,8,18.4,14.5,41.1,14.5s41.1-6.5,41.1-14.5V18.7z"
	/>
<path class="st0" d="M9.4,18.7c0,8,18.4,14.5,41.1,14.5s41.1-6.5,41.1-14.5"/>
<path class="st0" d="M9.4,52.6v14.5C9.4,75.1,21.3,81,44,81"/>
<path class="st0" d="M9.3,76.2v14.5c0,8,18.4,14.5,41.1,14.5c11.1,0,9.3,0,17.1-0.9"/>
<path class="st1" d="M43.1,70l-2.2-0.4c-0.1,0.7-0.2,1.4-0.3,2.2l2.2,0.2C42.9,71.3,43,70.7,43.1,70z"/>
<path class="st1" d="M44.1,66.1L42,65.4c-0.2,0.7-0.4,1.4-0.6,2.1l2.1,0.5C43.7,67.4,43.9,66.7,44.1,66.1z"/>
<path class="st1" d="M45.6,62.3l-2-1c-0.3,0.6-0.6,1.3-0.9,2l2,0.8C45,63.6,45.3,62.9,45.6,62.3z"/>
<path class="st1" d="M47.6,58.8l-1.8-1.2c-0.4,0.6-0.8,1.2-1.2,1.8l1.9,1.1C46.9,60,47.3,59.4,47.6,58.8z"/>
<path class="st1" d="M75.8,42.4l6.1-6.1l-1.5-1.6l-7.6,7.5c-0.1,0-0.1,0-0.2,0v0.2L71,44.1l9.4,9.3l1.5-1.6l-7.5-7.4
	c15.7,0.9,28.2,13.8,28.2,29.6c0,16.4-13.5,29.7-30.1,29.7c-16.4,0-29.8-13.1-30-29.3c0-0.1,0-0.2,0-0.4L40.5,74c0,0,0,0.1,0,0.1h0
	c0,0.1,0,0.2,0,0.4c0,0.2,0,0.5,0,0.7h0c0.6,17.1,14.8,30.8,32.2,30.8c17.8,0,32.2-14.3,32.2-31.8C104.9,57.6,92.1,43.9,75.8,42.4z"
	/>
</svg>
