<?xml version="1.0" encoding="utf-8"?>
<!-- Generator: Adobe Illustrator 22.1.0, SVG Export Plug-In . SVG Version: 6.00 Build 0)  -->
<svg version="1.1" id="Layer_1" xmlns="http://www.w3.org/2000/svg" xmlns:xlink="http://www.w3.org/1999/xlink" x="0px" y="0px"
	 viewBox="0 0 40 40" style="enable-background:new 0 0 40 40;" xml:space="preserve">
<style type="text/css">
	.st0{fill:#0391DD;}
</style>
<g id="_x34_">
	<g>
		<path class="st0" d="M32.6,34.4H19.9c-0.3,0-0.6-0.3-0.6-0.6v-5.2c0-0.3,0.3-0.6,0.6-0.6h12.7c0.3,0,0.6,0.3,0.6,0.6v5.2
			C33.2,34.1,32.9,34.4,32.6,34.4z M20.5,33.2H32v-4.1H20.5V33.2z"/>
	</g>
	<g>
		<path class="st0" d="M19.9,34.4H7.3c-0.3,0-0.6-0.3-0.6-0.6v-5.2C6.7,28.3,7,28,7.3,28H20c0.3,0,0.6,0.3,0.6,0.6v5.2
			C20.5,34.1,20.3,34.4,19.9,34.4z M7.8,33.2h11.5v-4.1H7.8V33.2z"/>
	</g>
	<g>
		<path class="st0" d="M26.3,39.6H13.6c-0.3,0-0.6-0.3-0.6-0.6v-5.2c0-0.3,0.3-0.6,0.6-0.6h12.7c0.3,0,0.6,0.3,0.6,0.6V39
			C26.9,39.4,26.6,39.6,26.3,39.6z M14.2,38.5h11.5v-4.1H14.2V38.5z"/>
	</g>
	<g>
		<path class="st0" d="M13.6,39.6H1c-0.3,0-0.6-0.3-0.6-0.6v-5.2c0-0.3,0.3-0.6,0.6-0.6h12.6c0.3,0,0.6,0.3,0.6,0.6V39
			C14.2,39.4,13.9,39.6,13.6,39.6z M1.6,38.5h11.5v-4.1H1.6V38.5z"/>
	</g>
	<g>
		<path class="st0" d="M39,39.6H26.3c-0.3,0-0.6-0.3-0.6-0.6v-5.2c0-0.3,0.3-0.6,0.6-0.6H39c0.3,0,0.6,0.3,0.6,0.6V39
			C39.6,39.4,39.3,39.6,39,39.6z M26.9,38.5h11.5v-4.1H26.9V38.5z"/>
	</g>
	<g>
		<path class="st0" d="M17.1,26.4L17.1,26.4c-0.4,0-0.7,0-1.1-0.1c-4.6-1.4-6.3-4.3-6.5-4.5c-1.6-2.5-1.7-5.4-0.4-8.4
			c1-2.2,2.4-3.7,2.4-3.8c0.2-0.2,0.4-0.2,0.6-0.1c0.2,0.1,0.4,0.3,0.4,0.5c0.2,2.3,1.5,3.6,2.5,4.3c-0.8-3.1,0-6.4,2.4-9.6
			c2-2.7,4.4-4.4,4.5-4.5c0.2-0.1,0.4-0.1,0.6,0C22.9,0.3,23,0.5,23,0.7c-0.9,8.4,0.4,12,1.7,13.5c0.7,0.8,1.3,1,1.4,1
			c0,0,0.1,0,0.1-0.1c0.5-0.6,0.2-3.1-0.2-4.6c-0.1-0.2,0-0.4,0.2-0.6c0.2-0.1,0.4-0.2,0.6-0.1c0,0,1.2,0.6,2.2,1.8s2.2,3.3,2.1,6.4
			c0,0.5-0.2,2.2-1.1,3.9c-1.2,2.3-3,3.7-5.4,4.2c-0.1,0-0.3,0.1-0.6,0.1c-0.2,0-0.4,0-0.6-0.2c-0.1-0.2-0.2-0.4-0.1-0.6
			c1.3-2.6,0.2-5.4-3.4-8.6c-0.1,1.5-0.6,3.7-2.1,4.2c-0.2,0.1-0.6,0.2-1,0.2c-0.6,0-1.5-0.2-2.4-1c0.2,1.2,0.8,3.1,2.8,5.1
			c0.1,0.1,0.2,0.3,0.2,0.4C17.7,26.2,17.4,26.4,17.1,26.4L17.1,26.4z M19.6,15.2c0.1,0,0.3,0,0.4,0.1c2.2,1.8,3.6,3.5,4.4,5.1
			c0.8,1.5,0.9,3.1,0.5,4.6c4.8-1.3,5.2-6.9,5.2-6.9c0.1-3.5-1.5-5.5-2.6-6.4c0.2,1.4,0.4,3.3-0.3,4.2c-0.3,0.3-0.6,0.5-1,0.5
			c0,0,0,0-0.1,0s-1.2-0.1-2.2-1.4c-1.3-1.6-2.7-5.2-2.1-13c-0.9,0.7-2.1,1.9-3.2,3.4c-2.5,3.4-3.1,6.6-1.8,9.8
			c0.1,0.2,0,0.4-0.1,0.6C16.5,16,16.3,16,16.1,16c0,0-1.1-0.3-2.1-1.2c-1-0.8-1.9-1.8-2.3-3.4c-0.4,0.6-1,1.5-1.5,2.5
			c-1.2,2.7-1,5.1,0.3,7.3l0,0c0,0,1.3,2.3,4.8,3.6c-2.5-3.2-1.9-6.1-1.9-6.2c0.1-0.2,0.2-0.4,0.5-0.4c0.2,0,0.5,0.1,0.6,0.3
			c0.7,1.2,1.5,1.8,2.4,1.8c0.3,0,0.5-0.1,0.7-0.1c1-0.3,1.4-3,1.4-4.3c0-0.2,0.1-0.4,0.3-0.5C19.4,15.2,19.5,15.2,19.6,15.2z"/>
	</g>
</g>
</svg>
