<?xml version="1.0" encoding="utf-8"?>
<!-- Generator: Adobe Illustrator 22.1.0, SVG Export Plug-In . SVG Version: 6.00 Build 0)  -->
<svg version="1.1" id="Layer_1" xmlns="http://www.w3.org/2000/svg" xmlns:xlink="http://www.w3.org/1999/xlink" x="0px" y="0px"
	 viewBox="0 0 40 40" style="enable-background:new 0 0 40 40;" xml:space="preserve">
<style type="text/css">
	.st0{fill:#2E8CCC;}
</style>
<g>
	<path class="st0" d="M20.1,5.2c-1.4,0-2.5-1.1-2.5-2.5s1.1-2.5,2.5-2.5c1.4,0,2.5,1.1,2.5,2.5S21.4,5.2,20.1,5.2z M20.1,1.5
		c-0.7,0-1.2,0.6-1.2,1.2S19.4,4,20.1,4c0.7,0,1.2-0.6,1.2-1.2S20.7,1.5,20.1,1.5z"/>
</g>
<g>
	<path class="st0" d="M20.1,40.1c-1.4,0-2.5-1.1-2.5-2.5s1.1-2.5,2.5-2.5c1.4,0,2.5,1.1,2.5,2.5S21.4,40.1,20.1,40.1z M20.1,36.4
		c-0.7,0-1.2,0.6-1.2,1.2s0.6,1.2,1.2,1.2c0.7,0,1.2-0.6,1.2-1.2S20.7,36.4,20.1,36.4z"/>
</g>
<g>
	<path class="st0" d="M2.6,13.3c-1.4,0-2.5-1.1-2.5-2.5s1.1-2.5,2.5-2.5c1.4,0,2.5,1.1,2.5,2.5S4,13.3,2.6,13.3z M2.6,9.6
		c-0.7,0-1.2,0.6-1.2,1.2s0.6,1.2,1.2,1.2c0.7,0,1.2-0.6,1.2-1.2S3.3,9.6,2.6,9.6z"/>
</g>
<g>
	<path class="st0" d="M2.6,32c-1.4,0-2.5-1.1-2.5-2.5S1.2,27,2.6,27c1.4,0,2.5,1.1,2.5,2.5S4,32,2.6,32z M2.6,28.3
		c-0.7,0-1.2,0.6-1.2,1.2s0.6,1.2,1.2,1.2c0.7,0,1.2-0.6,1.2-1.2S3.3,28.3,2.6,28.3z"/>
</g>
<g>
	<path class="st0" d="M37.5,13.3c-1.4,0-2.5-1.1-2.5-2.5s1.1-2.5,2.5-2.5c1.4,0,2.5,1.1,2.5,2.5S38.9,13.3,37.5,13.3z M37.5,9.6
		c-0.7,0-1.2,0.6-1.2,1.2s0.6,1.2,1.2,1.2c0.7,0,1.2-0.6,1.2-1.2S38.2,9.6,37.5,9.6z"/>
</g>
<g>
	<path class="st0" d="M37.5,32c-1.4,0-2.5-1.1-2.5-2.5s1.1-2.5,2.5-2.5c1.4,0,2.5,1.1,2.5,2.5S38.9,32,37.5,32z M37.5,28.3
		c-0.7,0-1.2,0.6-1.2,1.2s0.6,1.2,1.2,1.2c0.7,0,1.2-0.6,1.2-1.2S38.2,28.3,37.5,28.3z"/>
</g>
<g>
	<path class="st0" d="M20.1,27.7c-4.1,0-7.5-3.4-7.5-7.5s3.4-7.5,7.5-7.5c4.1,0,7.5,3.4,7.5,7.5S24.2,27.7,20.1,27.7z M20.1,14
		c-3.4,0-6.2,2.8-6.2,6.2s2.8,6.2,6.2,6.2c3.4,0,6.2-2.8,6.2-6.2S23.5,14,20.1,14z"/>
</g>
<g>
	<path class="st0" d="M20.1,30.2c-5.5,0-10-4.5-10-10s4.5-10,10-10c5.5,0,10,4.5,10,10S25.6,30.2,20.1,30.2z M20.1,11.5
		c-4.8,0-8.7,3.9-8.7,8.7s3.9,8.7,8.7,8.7c4.8,0,8.7-3.9,8.7-8.7S24.9,11.5,20.1,11.5z"/>
</g>
<g>
	<rect x="3.3" y="26.1" transform="matrix(0.8808 -0.4735 0.4735 0.8808 -11.7139 6.9339)" class="st0" width="9.2" height="1.2"/>
</g>
<g>
	<rect x="7.3" y="9" transform="matrix(0.4741 -0.8805 0.8805 0.4741 -7.853 14.1434)" class="st0" width="1.2" height="9.2"/>
</g>
<g>
	<rect x="19.4" y="4.6" class="st0" width="1.2" height="6.2"/>
</g>
<g>
	<rect x="27.6" y="13" transform="matrix(0.8808 -0.4735 0.4735 0.8808 -2.6212 16.8803)" class="st0" width="9.2" height="1.2"/>
</g>
<g>
	<rect x="31.6" y="22.1" transform="matrix(0.4741 -0.8805 0.8805 0.4741 -6.5943 42.4187)" class="st0" width="1.2" height="9.2"/>
</g>
<g>
	<rect x="19.4" y="29.5" class="st0" width="1.2" height="6.2"/>
</g>
<g>
	<rect x="33.1" y="8.3" class="st0" width="1.2" height="1.2"/>
</g>
<g>
	<rect x="30.7" y="7.1" class="st0" width="1.2" height="1.2"/>
</g>
<g>
	<rect x="28.2" y="5.9" class="st0" width="1.2" height="1.2"/>
</g>
<g>
	<rect x="25.7" y="4.6" class="st0" width="1.2" height="1.2"/>
</g>
<g>
	<rect x="23.2" y="3.4" class="st0" width="1.2" height="1.2"/>
</g>
<g>
	<rect x="5.7" y="8.3" class="st0" width="1.2" height="1.2"/>
</g>
<g>
	<rect x="8.2" y="7.1" class="st0" width="1.2" height="1.2"/>
</g>
<g>
	<rect x="10.7" y="5.9" class="st0" width="1.2" height="1.2"/>
</g>
<g>
	<rect x="13.2" y="4.6" class="st0" width="1.2" height="1.2"/>
</g>
<g>
	<rect x="15.7" y="3.4" class="st0" width="1.2" height="1.2"/>
</g>
<g>
	<g>
		<rect x="33.1" y="30.8" class="st0" width="1.2" height="1.2"/>
	</g>
	<g>
		<rect x="30.7" y="32" class="st0" width="1.2" height="1.2"/>
	</g>
	<g>
		<rect x="28.2" y="33.3" class="st0" width="1.2" height="1.2"/>
	</g>
	<g>
		<rect x="25.7" y="34.5" class="st0" width="1.2" height="1.2"/>
	</g>
	<g>
		<rect x="23.2" y="35.8" class="st0" width="1.2" height="1.2"/>
	</g>
	<g>
		<rect x="5.7" y="30.8" class="st0" width="1.2" height="1.2"/>
	</g>
	<g>
		<rect x="8.2" y="32" class="st0" width="1.2" height="1.2"/>
	</g>
	<g>
		<rect x="10.7" y="33.3" class="st0" width="1.2" height="1.2"/>
	</g>
	<g>
		<rect x="13.2" y="34.5" class="st0" width="1.2" height="1.2"/>
	</g>
	<g>
		<rect x="15.7" y="35.8" class="st0" width="1.2" height="1.2"/>
	</g>
</g>
<g>
	<rect x="2" y="14.6" class="st0" width="1.2" height="1.2"/>
</g>
<g>
	<rect x="2" y="17.1" class="st0" width="1.2" height="1.2"/>
</g>
<g>
	<rect x="2" y="19.6" class="st0" width="1.2" height="1.2"/>
</g>
<g>
	<rect x="2" y="22.1" class="st0" width="1.2" height="1.2"/>
</g>
<g>
	<rect x="2" y="24.5" class="st0" width="1.2" height="1.2"/>
</g>
<g>
	<rect x="36.9" y="14.6" class="st0" width="1.2" height="1.2"/>
</g>
<g>
	<rect x="36.9" y="17.1" class="st0" width="1.2" height="1.2"/>
</g>
<g>
	<rect x="36.9" y="19.6" class="st0" width="1.2" height="1.2"/>
</g>
<g>
	<rect x="36.9" y="22.1" class="st0" width="1.2" height="1.2"/>
</g>
<g>
	<rect x="36.9" y="24.5" class="st0" width="1.2" height="1.2"/>
</g>
</svg>
