<?xml version="1.0" encoding="utf-8"?>
<!-- Generator: Adobe Illustrator 22.1.0, SVG Export Plug-In . SVG Version: 6.00 Build 0)  -->
<svg version="1.1" id="Layer_1" xmlns="http://www.w3.org/2000/svg" xmlns:xlink="http://www.w3.org/1999/xlink" x="0px" y="0px"
	 viewBox="0 0 40 40" style="enable-background:new 0 0 40 40;" xml:space="preserve">
<style type="text/css">
	.st0{fill:#0391DD;}
</style>
<g>
	<g>
		<path class="st0" d="M19.4,30.9c-0.4,0-0.8-0.1-1.3-0.1l0.2-1.2c0.4,0.1,0.7,0.1,1.1,0.1L19.4,30.9z M20.6,30.9l-0.1-1.2
			c0.4,0,0.7-0.1,1.1-0.1l0.2,1.2C21.5,30.8,21.1,30.9,20.6,30.9z M16.9,30.5c-0.4-0.1-0.8-0.3-1.2-0.4l0.5-1.1
			c0.3,0.2,0.7,0.3,1,0.4L16.9,30.5z M23.1,30.5l-0.3-1.1c0.4-0.1,0.7-0.2,1-0.4l0.5,1.1C23.9,30.2,23.5,30.3,23.1,30.5z M14.6,29.4
			c-0.4-0.2-0.7-0.4-1-0.7l0.7-0.9c0.3,0.2,0.6,0.4,0.9,0.6L14.6,29.4z M25.4,29.4l-0.6-1c0.3-0.2,0.6-0.4,0.9-0.6l0.7,0.9
			C26.1,29,25.8,29.2,25.4,29.4z M12.6,27.9c-0.3-0.3-0.6-0.6-0.9-0.9l0.9-0.8c0.2,0.3,0.5,0.6,0.8,0.8L12.6,27.9z M27.4,27.9
			L26.6,27c0.3-0.3,0.5-0.5,0.8-0.8l0.9,0.8C28,27.3,27.7,27.6,27.4,27.9z M11,26c-0.2-0.4-0.4-0.7-0.6-1.1l1.1-0.5
			c0.2,0.3,0.4,0.7,0.6,1L11,26z M29,26l-1-0.6c0.2-0.3,0.4-0.6,0.6-1l1.1,0.5C29.5,25.2,29.2,25.6,29,26z M9.9,23.7
			c-0.1-0.4-0.3-0.8-0.4-1.2l1.2-0.3c0.1,0.4,0.2,0.7,0.3,1.1L9.9,23.7z M30.1,23.7L29,23.3c0.1-0.4,0.2-0.7,0.3-1.1l1.2,0.3
			C30.4,22.9,30.3,23.3,30.1,23.7z M9.3,21.3c0-0.4-0.1-0.8-0.1-1.3h1.2c0,0.4,0,0.8,0.1,1.1L9.3,21.3z M30.7,21.3l-1.2-0.1
			c0-0.4,0.1-0.7,0.1-1.1l0,0h1.2l0,0C30.8,20.4,30.7,20.8,30.7,21.3z M10.5,18.9l-1.2-0.1c0-0.4,0.1-0.8,0.2-1.2l1.2,0.3
			C10.6,18.2,10.5,18.5,10.5,18.9z M29.5,18.8c0-0.4-0.1-0.7-0.2-1.1l1.2-0.3c0.1,0.4,0.2,0.8,0.2,1.2L29.5,18.8z M11,16.7l-1.1-0.4
			c0.1-0.4,0.3-0.8,0.5-1.2l1.1,0.5C11.3,16,11.1,16.4,11,16.7z M29,16.7c-0.1-0.4-0.3-0.7-0.4-1l1.1-0.5c0.2,0.4,0.4,0.8,0.5,1.2
			L29,16.7z M12,14.7l-1-0.6c0.2-0.4,0.5-0.7,0.7-1l0.9,0.8C12.4,14.1,12.2,14.4,12,14.7z M28,14.7c-0.2-0.3-0.4-0.6-0.7-0.9
			l0.9-0.8c0.3,0.3,0.5,0.7,0.7,1L28,14.7z M13.4,13l-0.8-0.9c0.3-0.3,0.6-0.6,1-0.8l0.7,0.9C13.9,12.5,13.7,12.7,13.4,13z
			 M26.6,12.9c-0.3-0.3-0.6-0.5-0.9-0.7l0.7-1c0.3,0.3,0.7,0.5,1,0.8L26.6,12.9z M15.2,11.6l-0.6-1c0.4-0.2,0.7-0.4,1.1-0.6l0.5,1.1
			C15.8,11.2,15.5,11.4,15.2,11.6z M24.8,11.6c-0.3-0.2-0.7-0.4-1-0.5l0.5-1.1c0.4,0.2,0.8,0.4,1.1,0.6L24.8,11.6z M17.2,10.7
			l-0.4-1.1c0.4-0.1,0.8-0.2,1.2-0.3l0.2,1.2C17.9,10.5,17.6,10.6,17.2,10.7z M22.7,10.7c-0.4-0.1-0.7-0.2-1.1-0.3l0.2-1.2
			c0.4,0.1,0.8,0.2,1.2,0.3L22.7,10.7z M19.4,10.3l-0.1-1.2c0.2,0,0.4,0,0.7,0c0.2,0,0.4,0,0.6,0l-0.1,1.2c-0.2,0-0.4,0-0.5,0
			C19.8,10.3,19.6,10.3,19.4,10.3z"/>
	</g>
	<g>
		<g>
			<g>
				<polygon class="st0" points="22.7,4.6 20.2,2 17.7,4.6 16.9,3.7 20.2,0.3 23.6,3.7 				"/>
			</g>
			<g>
				<rect x="19.6" y="1.8" class="st0" width="1.2" height="5"/>
			</g>
		</g>
		<g>
			<g>
				<polygon class="st0" points="7.6,10.7 6.4,10.7 6.4,5.9 11.2,5.9 11.2,7.1 7.6,7.1 				"/>
			</g>
			<g>
				<rect x="8.6" y="6.2" transform="matrix(0.7123 -0.7019 0.7019 0.7123 -3.467 8.9599)" class="st0" width="1.2" height="5"/>
			</g>
		</g>
		<g>
			<g>
				<polygon class="st0" points="4,23.2 0.6,19.8 4,16.4 4.8,17.2 2.3,19.8 4.8,22.3 				"/>
			</g>
			<g>
				<rect x="2" y="19.2" class="st0" width="5" height="1.2"/>
			</g>
		</g>
		<g>
			<g>
				<polygon class="st0" points="10.9,33.7 6.1,33.7 6.1,28.9 7.3,28.9 7.3,32.6 10.9,32.6 				"/>
			</g>
			<g>
				
					<rect x="6.4" y="30.4" transform="matrix(0.7016 -0.7126 0.7126 0.7016 -19.4051 15.6033)" class="st0" width="5" height="1.2"/>
			</g>
		</g>
		<g>
			<g>
				<polygon class="st0" points="28.8,34.1 28.8,32.9 32.4,32.9 32.4,29.3 33.6,29.3 33.5,34.1 				"/>
			</g>
			<g>
				<rect x="30.2" y="28.8" transform="matrix(0.7122 -0.702 0.702 0.7122 -13.0989 30.6303)" class="st0" width="1.2" height="5"/>
			</g>
		</g>
		<g>
			<g>
				<polygon class="st0" points="36,23.6 35.2,22.8 37.7,20.2 35.2,17.7 36,16.8 39.4,20.2 				"/>
			</g>
			<g>
				<rect x="33" y="19.6" class="st0" width="5" height="1.2"/>
			</g>
		</g>
		<g>
			<g>
				<polygon class="st0" points="19.8,39.7 16.4,36.3 17.3,35.4 19.8,38 22.3,35.4 23.1,36.3 				"/>
			</g>
			<g>
				<rect x="19.2" y="33.2" class="st0" width="1.2" height="5"/>
			</g>
		</g>
		<g>
			<g>
				<polygon class="st0" points="32.7,11.1 32.7,7.4 29.1,7.4 29.1,6.3 33.9,6.3 33.9,11.1 				"/>
			</g>
			<g>
				<rect x="28.6" y="8.4" transform="matrix(0.7016 -0.7126 0.7126 0.7016 2.8398 24.8366)" class="st0" width="5" height="1.2"/>
			</g>
		</g>
	</g>
	<g>
		<g>
			<path class="st0" d="M20,27.8c-4.3,0-7.7-3.5-7.7-7.8s3.5-7.8,7.7-7.8c4.3,0,7.7,3.5,7.7,7.8S24.3,27.8,20,27.8z M20,13.4
				c-3.6,0-6.5,3-6.5,6.6c0,3.7,2.9,6.6,6.5,6.6s6.5-3,6.5-6.6C26.5,16.3,23.6,13.4,20,13.4z"/>
		</g>
		<g>
			<path class="st0" d="M20,22.3c-1.7,0-3.1-1.4-3.1-3.1s1.4-3.1,3.1-3.1s3.1,1.4,3.1,3.1S21.7,22.3,20,22.3z M20,17.2
				c-1,0-1.9,0.9-1.9,1.9c0,1.1,0.9,1.9,1.9,1.9s1.9-0.9,1.9-1.9S21,17.2,20,17.2z"/>
		</g>
		<g>
			<path class="st0" d="M25,25.1h-1.2v-0.2c0-1.1-0.9-1.9-1.9-1.9h-3.7c-1,0-1.9,0.9-1.9,1.9v0.2H15v-0.2c0-1.7,1.4-3.1,3.1-3.1h3.7
				c1.7,0,3.1,1.4,3.1,3.1L25,25.1L25,25.1z"/>
		</g>
	</g>
</g>
</svg>
