<?xml version="1.0" encoding="utf-8"?>
<!-- Generator: Adobe Illustrator 16.0.0, SVG Export Plug-In . SVG Version: 6.00 Build 0)  -->
<!DOCTYPE svg PUBLIC "-//W3C//DTD SVG 1.1//EN" "http://www.w3.org/Graphics/SVG/1.1/DTD/svg11.dtd">
<svg version="1.1" id="Layer_1" xmlns="http://www.w3.org/2000/svg" xmlns:xlink="http://www.w3.org/1999/xlink" x="0px" y="0px"
	 width="150px" height="150px" viewBox="0 0 150 150" enable-background="new 0 0 150 150" xml:space="preserve">
<g>
	<rect x="-155.804" y="106.895" fill="#FFFFFF" width="96.894" height="7.433"/>
	<rect x="-141.09" y="119.434" fill="#FFFFFF" width="96.895" height="7.436"/>
	<rect x="-155.804" y="131.976" fill="#FFFFFF" width="96.894" height="7.433"/>
</g>
<g>
	<g>
		<path fill="none" stroke="#FFFFFF" stroke-width="4" stroke-linecap="round" stroke-linejoin="round" stroke-miterlimit="10" d="
			M-142.801,53.391c0-23.638,19.166-42.798,42.799-42.798c23.638,0,42.804,19.16,42.804,42.798s-19.166,42.799-42.804,42.799
			C-123.635,96.189-142.801,77.028-142.801,53.391z"/>
	</g>
	<path fill="#FFFFFF" stroke="#FFFFFF" stroke-miterlimit="10" d="M-95.816,20.675v6.454c2.595,0.422,4.71,1.278,6.363,2.571
		c1.646,1.298,3.216,3.285,4.71,5.966l-6.425,3.591c-1.934-3.515-4.458-5.271-7.584-5.271c-1.934,0-3.534,0.569-4.809,1.713
		c-1.273,1.142-1.911,2.567-1.911,4.281c0,1.559,0.516,2.856,1.547,3.887c1.018,1.013,3.057,2.208,6.137,3.597
		c2.654,1.205,4.846,2.343,6.583,3.408c1.736,1.066,3.05,2.088,3.921,3.079c2.48,2.681,3.725,5.92,3.725,9.723
		c0,3.731-1.115,7.027-3.36,9.882c-2.214,2.834-5.181,4.746-8.896,5.734v6.822h-5.764v-6.625c-4.309-0.701-7.593-2.188-9.852-4.448
		c-2.26-2.265-3.93-5.756-5.006-10.479l7.242-1.517c0.994,3.337,2.199,5.723,3.626,7.152c1.494,1.362,3.48,2.045,5.96,2.045
		c2.421,0,4.445-0.782,6.067-2.344c1.601-1.536,2.405-3.523,2.405-5.961c0-2.176-0.668-3.921-2.01-5.242
		c-0.682-0.633-1.684-1.353-3.011-2.157c-1.335-0.8-3.027-1.677-5.097-2.617c-4.255-1.915-7.063-3.667-8.396-5.275
		c-2.132-2.396-3.199-5.259-3.199-8.6c0-1.579,0.25-3.049,0.758-4.416c0.508-1.361,1.235-2.597,2.192-3.705
		c0.956-1.11,2.138-2.07,3.54-2.884c1.403-0.81,3.005-1.446,4.779-1.913v-6.454H-95.816z"/>
</g>
<g>
	<path fill="none" stroke="#0E7BB1" stroke-width="2" stroke-linecap="round" stroke-linejoin="round" stroke-miterlimit="10" d="
		M24.538,24.312h100.921c4.748,0,8.594,3.846,8.594,8.59v73.893h-6.709V33.759c0-1.133-0.916-2.049-2.048-2.049H25.295
		c-1.128,0-2.049,0.916-2.049,2.049v73.035h-7.303V32.901C15.943,28.157,19.793,24.312,24.538,24.312z"/>
	<path fill="none" stroke="#0E7BB1" stroke-width="2" stroke-linecap="round" stroke-linejoin="round" stroke-miterlimit="10" d="
		M25.295,31.71h100.001c1.132,0,2.048,0.916,2.048,2.049v73.035H23.246V33.759C23.246,32.626,24.167,31.71,25.295,31.71z"/>
	<path fill="none" stroke="#0E7BB1" stroke-width="2" stroke-linecap="round" stroke-linejoin="round" stroke-miterlimit="10" d="
		M64.34,106.794l1.797,1.896h19.94l1.806-1.896h56.633v1.886c0,3.117-2.406,5.647-5.379,5.647H10.855
		c-2.965,0-5.371-2.53-5.371-5.647v-1.886H64.34z"/>
	<g>
		<path fill="none" stroke="#0E7BB1" stroke-width="2" stroke-linecap="round" stroke-linejoin="round" stroke-miterlimit="10" d="
			M97.302,67.913c-0.29,0-0.57,0.018-0.85,0.046c0.29-1.245,0.468-2.545,0.468-3.886c0-8.897-6.868-16.112-15.335-16.112
			c-4.104,0-7.82,1.705-10.572,4.458c-1.558-0.701-3.27-1.098-5.074-1.098c-7.104,0-12.865,6.051-12.865,13.521
			c0,0.035,0,0.066,0,0.103c-5.647,0.496-10.091,5.463-10.091,11.527c0,6.397,4.933,11.577,11.019,11.577h43.301
			c5.292,0,9.581-4.507,9.581-10.069C106.883,72.42,102.594,67.913,97.302,67.913z"/>
	</g>
	
		<line fill="none" stroke="#0E7BB1" stroke-width="2" stroke-linecap="round" stroke-linejoin="round" stroke-miterlimit="10" x1="95.005" y1="106.794" x2="55.55" y2="106.794"/>
	
		<line fill="none" stroke="#0E7BB1" stroke-width="2" stroke-linecap="round" stroke-linejoin="round" stroke-miterlimit="10" x1="41.361" y1="31.71" x2="48.113" y2="38.464"/>
	
		<line fill="none" stroke="#0E7BB1" stroke-width="2" stroke-linecap="round" stroke-linejoin="round" stroke-miterlimit="10" x1="111.072" y1="100.044" x2="117.827" y2="106.794"/>
	
		<line fill="none" stroke="#0E7BB1" stroke-width="2" stroke-linecap="round" stroke-linejoin="round" stroke-miterlimit="10" x1="27.754" y1="31.71" x2="45.973" y2="49.928"/>
</g>
<g>
	<path fill="none" stroke="#FFFFFF" stroke-width="4" stroke-linecap="round" stroke-linejoin="round" stroke-miterlimit="10" d="
		M82.85,269.469v-10.646h-6.908c-0.82-4.936-2.746-9.479-5.537-13.386l4.879-4.88l-7.533-7.529l-4.879,4.874
		c-3.902-2.786-8.451-4.712-13.378-5.532v-6.908H38.842v6.908c-2.727,0.45-5.313,1.271-7.758,2.359
		c-0.342-1.85-0.59-3.731-0.59-5.685c0-17.771,14.406-32.177,32.177-32.177c8.603,0,16.4,3.399,22.176,8.905
		c3.269-1.407,6.868-2.192,10.647-2.192c14.913,0,26.999,12.086,26.999,26.995c0,0.071-0.012,0.136-0.012,0.207
		c11.858,0.988,21.179,10.906,21.179,23.021c0,12.769-10.352,23.121-23.12,23.121H73.729c1.017-2.356,1.777-4.845,2.212-7.455H82.85
		z"/>
	<path fill="none" stroke="#FFFFFF" stroke-width="4" stroke-linecap="round" stroke-linejoin="round" stroke-miterlimit="10" d="
		M84.62,214.762c2.479-1.064,5.205-1.658,8.075-1.658c11.298,0,20.458,9.16,20.458,20.461c0,0.048-0.007,0.1-0.007,0.152"/>
	<path fill="none" stroke="#FFFFFF" stroke-width="4" stroke-linecap="round" stroke-linejoin="round" stroke-miterlimit="10" d="
		M24.897,237.348c0.654-0.164,1.323-0.26,2.002-0.355c-0.479,0.304-0.981,0.582-1.443,0.909L24.897,237.348z"/>
	<path fill="none" stroke="#FFFFFF" stroke-width="4" stroke-linecap="round" stroke-linejoin="round" stroke-miterlimit="10" d="
		M9.79,258.822h2.599c0.82-4.936,2.75-9.479,5.538-13.386l-2.628-2.624l-2.252-2.256l7.529-7.529l4.321,4.32l0.559,0.554
		c0.462-0.327,0.964-0.605,1.443-0.909c1.334-0.853,2.727-1.617,4.185-2.264c2.444-1.088,5.031-1.909,7.758-2.359v-6.908h10.651
		v6.908c4.927,0.82,9.476,2.746,13.378,5.532l4.879-4.874l7.533,7.529l-4.879,4.88c2.791,3.906,4.717,8.45,5.537,13.386h6.908
		v10.646h-6.908c-0.435,2.61-1.195,5.099-2.212,7.455c-0.908,2.101-2.01,4.089-3.325,5.928l4.879,4.879l-7.533,7.533l-4.879-4.878
		c-3.902,2.79-8.451,4.715-13.378,5.536v6.904H38.842v-6.904c-4.936-0.821-9.479-2.746-13.386-5.536l-4.88,4.878l-7.529-7.533
		l4.88-4.879c-2.788-3.903-4.718-8.451-5.538-13.383H5.484v-10.646H9.79z"/>
	<path fill="none" stroke="#FFFFFF" stroke-width="4" stroke-linecap="round" stroke-linejoin="round" stroke-miterlimit="10" d="
		M26.021,264.144c0,10.021,8.124,18.141,18.146,18.141c10.018,0,18.138-8.12,18.138-18.141c0-10.018-8.12-18.142-18.138-18.142
		C34.146,246.002,26.021,254.126,26.021,264.144z M36.973,264.351c0-4.022,3.265-7.282,7.286-7.282c4.022,0,7.287,3.26,7.287,7.282
		c0,4.021-3.265,7.287-7.287,7.287C40.237,271.638,36.973,268.372,36.973,264.351z"/>
	<path fill="none" stroke="#FFFFFF" stroke-width="4" stroke-linecap="round" stroke-linejoin="round" stroke-miterlimit="10" d="
		M44.259,257.068c4.022,0,7.287,3.26,7.287,7.282c0,4.021-3.265,7.287-7.287,7.287c-4.021,0-7.286-3.266-7.286-7.287
		C36.973,260.328,40.237,257.068,44.259,257.068z"/>
</g>
</svg>
