<?xml version="1.0" encoding="utf-8"?>
<!-- Generator: Adobe Illustrator 22.1.0, SVG Export Plug-In . SVG Version: 6.00 Build 0)  -->
<svg version="1.1" id="Layer_1" xmlns="http://www.w3.org/2000/svg" xmlns:xlink="http://www.w3.org/1999/xlink" x="0px" y="0px"
	 viewBox="0 0 110 110" style="enable-background:new 0 0 110 110;" xml:space="preserve">
<style type="text/css">
	.st0{fill:#1B9AD6;}
</style>
<g id="People">
	<g id="Icon-29">
		<path id="hard-disks" class="st0" d="M11.9,69.8c0.8,0,1.5-0.7,1.5-1.5V52h78.7c0.8,0,1.5-0.7,1.5-1.5c0-0.8-0.7-1.5-1.5-1.5H11.9
			c-0.8,0-1.5,0.7-1.5,1.5v17.8C10.5,69.2,11.1,69.8,11.9,69.8L11.9,69.8z M26.8,60.9c-0.8,0-1.5,0.7-1.5,1.5c0,0.8,0.7,1.5,1.5,1.5
			h26.7c0.8,0,1.5-0.7,1.5-1.5c0-0.8-0.7-1.5-1.5-1.5H26.8z M68.4,60.9c-0.8,0-1.5,0.7-1.5,1.5s0.7,1.5,1.5,1.5
			c0.8,0,1.5-0.7,1.5-1.5S69.2,60.9,68.4,60.9L68.4,60.9z M68.4,58c2.5,0,4.5,2,4.5,4.5c0,2.5-2,4.5-4.5,4.5s-4.5-2-4.5-4.5
			C63.9,60,65.9,58,68.4,58L68.4,58z M80.2,60.9c-0.8,0-1.5,0.7-1.5,1.5s0.7,1.5,1.5,1.5c0.8,0,1.5-0.7,1.5-1.5S81.1,60.9,80.2,60.9
			L80.2,60.9z M80.2,58c2.5,0,4.5,2,4.5,4.5c0,2.5-2,4.5-4.5,4.5s-4.5-2-4.5-4.5C75.8,60,77.8,58,80.2,58L80.2,58z M26.8,84.7
			c-0.8,0-1.5,0.7-1.5,1.5s0.7,1.5,1.5,1.5h26.7c0.8,0,1.5-0.7,1.5-1.5s-0.7-1.5-1.5-1.5H26.8z M68.4,84.7c-0.8,0-1.5,0.7-1.5,1.5
			c0,0.8,0.7,1.5,1.5,1.5c0.8,0,1.5-0.7,1.5-1.5C69.8,85.4,69.2,84.7,68.4,84.7L68.4,84.7z M68.4,81.7c2.5,0,4.5,2,4.5,4.5
			s-2,4.5-4.5,4.5s-4.5-2-4.5-4.5S65.9,81.7,68.4,81.7L68.4,81.7z M80.2,84.7c-0.8,0-1.5,0.7-1.5,1.5c0,0.8,0.7,1.5,1.5,1.5
			c0.8,0,1.5-0.7,1.5-1.5C81.7,85.4,81.1,84.7,80.2,84.7L80.2,84.7z M80.2,81.7c2.5,0,4.5,2,4.5,4.5s-2,4.5-4.5,4.5s-4.5-2-4.5-4.5
			S77.8,81.7,80.2,81.7L80.2,81.7z M99.5,17.9v74.2c0,3.8-3.6,7.4-7.4,7.4H17.9c-3.8,0-7.4-3.6-7.4-7.4V74.3c0-0.8,0.7-1.5,1.5-1.5
			h80.2c0.8,0,1.5,0.7,1.5,1.5c0,0.8-0.7,1.5-1.5,1.5H13.4v16.3c0,2.2,2.3,4.5,4.5,4.5h74.2c2.2,0,4.5-2.3,4.5-4.5V17.9
			c0-2.2-2.3-4.5-4.5-4.5H17.9c-2.2,0-4.5,2.3-4.5,4.5v26.7c0,0.8-0.7,1.5-1.5,1.5s-1.5-0.7-1.5-1.5V17.9c0-3.8,3.6-7.4,7.4-7.4
			h74.2C95.9,10.5,99.5,14.1,99.5,17.9L99.5,17.9z"/>
	</g>
</g>
</svg>
