<?xml version="1.0" encoding="utf-8"?>
<!-- Generator: Adobe Illustrator 22.1.0, SVG Export Plug-In . SVG Version: 6.00 Build 0)  -->
<svg version="1.1" id="Layer_1" xmlns="http://www.w3.org/2000/svg" xmlns:xlink="http://www.w3.org/1999/xlink" x="0px" y="0px"
	 viewBox="0 0 40 40" style="enable-background:new 0 0 40 40;" xml:space="preserve">
<style type="text/css">
	.st0{fill:#31A2D8;}
</style>
<g>
	<g>
		<rect x="18.1" y="26.4" class="st0" width="1.7" height="1.2"/>
	</g>
	<g>
		<path class="st0" d="M36.2,27.6h-12v-1.2l11.5,0c0.1,0,0.1,0,0.2,0l0.1,0c1.4,0,2.6-1.2,2.6-2.7c0-1.4-1.1-2.6-2.5-2.7l-0.7,0
			l0.1-0.7c0-0.3,0-0.5,0-0.8c0-3.6-2.9-6.5-6.5-6.5c-0.6,0-1.2,0.1-1.7,0.2l-0.7,0.2l-0.1-0.7c-0.7-4.9-4.8-8.5-9.7-8.5
			c-5.4,0-9.8,4.4-9.8,9.9l0,0.6l-0.5,0.1c-2.9,0.3-5.1,2.8-5.1,5.8c0,3.2,2.6,5.8,5.7,5.8h6.7v1.2H7.2c-3.8,0-6.9-3.1-6.9-7
			c0-3.4,2.4-6.3,5.6-6.9C6.1,7.8,11,3.1,16.9,3.1c5.2,0,9.7,3.8,10.8,8.9c0.5-0.1,0.9-0.1,1.4-0.1c4.2,0,7.7,3.5,7.7,7.8
			c0,0.1,0,0.2,0,0.3c1.8,0.3,3.1,1.9,3.1,3.8C39.8,25.8,38.2,27.5,36.2,27.6L36.2,27.6z"/>
	</g>
	<g>
		<path class="st0" d="M33.9,20.7l-1.2-0.1c0-0.2,0-0.4,0-0.5c0-2.3-1.8-4.1-4.1-4.1c-0.4,0-0.7,0.1-1.1,0.2l-0.3-1.2
			c0.5-0.1,1-0.2,1.4-0.2c2.9,0,5.3,2.4,5.3,5.3C33.9,20.2,33.9,20.5,33.9,20.7z"/>
	</g>
	<g>
		<path class="st0" d="M8.7,14.7L8.7,14.7c0-4.9,3.8-8.7,8.6-8.7v1.2c-4.1,0-7.4,3.3-7.4,7.4l0,0.1L8.7,14.7z"/>
	</g>
	<g>
		<path class="st0" d="M4.3,21H3.1c0-2.3,1.7-4.3,4-4.6l0.1,1.2C5.6,17.9,4.3,19.3,4.3,21z"/>
	</g>
	<g>
		<g>
			<polygon class="st0" points="19,18 16,15 13.1,18 12.2,17.1 16,13.3 19.8,17.1 			"/>
		</g>
		<g>
			<rect x="15.4" y="14.4" class="st0" width="1.2" height="13.3"/>
		</g>
	</g>
	<g>
		<g>
			<polygon class="st0" points="21.9,40.4 18.1,36.6 19,35.7 21.9,38.7 24.9,35.7 25.7,36.6 			"/>
		</g>
		<g>
			<rect x="21.3" y="26.2" class="st0" width="1.2" height="13.1"/>
		</g>
	</g>
</g>
</svg>
