<?xml version="1.0" encoding="utf-8"?>
<!-- Generator: Adobe Illustrator 22.1.0, SVG Export Plug-In . SVG Version: 6.00 Build 0)  -->
<svg version="1.1" id="Layer_1" xmlns="http://www.w3.org/2000/svg" xmlns:xlink="http://www.w3.org/1999/xlink" x="0px" y="0px"
	 viewBox="0 0 40 40" style="enable-background:new 0 0 40 40;" xml:space="preserve">
<style type="text/css">
	.st0{fill:#0090E2;}
	.st1{fill:#0391DD;}
	.st2{fill:none;}
	.st3{font-family:'RobotoCondensed-Bold';}
	.st4{font-size:10.3861px;}
</style>
<g>
	<circle class="st0" cx="20" cy="30.4" r="0.9"/>
</g>
<g>
	<path class="st1" d="M24.5,39.3L24.5,39.3h-8.9c-0.2,0-0.3-0.1-0.4-0.2C15,39,15,38.8,15,38.7l1-5.1c0-0.2,0.3-0.4,0.5-0.4h7
		c0.2,0,0.5,0.2,0.5,0.4l0.9,5.1v0.1C25,39.1,24.8,39.3,24.5,39.3z M16.1,38.3h7.7L23,34.2h-6.2L16.1,38.3z"/>
</g>
<g>
	<path class="st1" d="M26,39.3H14c-0.3,0-0.5-0.2-0.5-0.5s0.2-0.5,0.5-0.5h12c0.3,0,0.5,0.2,0.5,0.5S26.3,39.3,26,39.3z"/>
</g>
<g>
	<path class="st0" d="M37.4,28H2.6c-0.3,0-0.5-0.2-0.5-0.5S2.3,27,2.6,27h34.8c0.3,0,0.5,0.2,0.5,0.5S37.7,28,37.4,28z"/>
</g>
<path class="st2" d="M21.9,9.1h-3.6h-3.8h-3.6H4.7c-0.9,0-1.6,0.7-1.6,1.6v20.8c0,0.9,0.7,1.6,1.6,1.6h30.6c0.9,0,1.6-0.7,1.6-1.6
	V10.7c0-0.9-0.7-1.6-1.6-1.6h-5.9h-3.6C25.8,9.1,21.9,9.1,21.9,9.1z"/>
<rect x="14.5" y="8" class="st0" width="3.8" height="1.1"/>
<rect x="21.9" y="8" class="st0" width="3.8" height="1.1"/>
<path class="st1" d="M35.3,8h-5.9v1.1h5.9c0.9,0,1.6,0.7,1.6,1.6v20.8c0,0.9-0.7,1.6-1.6,1.6H4.7c-0.9,0-1.6-0.7-1.6-1.6V10.7
	c0-0.9,0.7-1.6,1.6-1.6h6.2V8H4.7C3.2,8,2,9.2,2,10.7v20.8c0,1.5,1.2,2.7,2.7,2.7h30.6c1.5,0,2.7-1.2,2.7-2.7V10.7
	C38,9.2,36.8,8,35.3,8z"/>
<rect x="12.1" y="4.5" class="st1" width="1.2" height="9.3"/>
<rect x="4" y="4.5" class="st1" width="9.3" height="1.2"/>
<rect x="27.1" y="4.4" class="st1" width="9.3" height="1.2"/>
<rect x="19.6" y="1.9" class="st1" width="1.2" height="11.9"/>
<rect x="27.1" y="4.5" class="st1" width="1.2" height="9.3"/>
<circle class="st1" cx="20.2" cy="1.9" r="1.2"/>
<circle class="st1" cx="36.4" cy="5" r="1.2"/>
<circle class="st1" cx="3.9" cy="5" r="1.2"/>
<text transform="matrix(1 0 0 1 11.4175 23.1772)" class="st1 st3 st4">VPN</text>
</svg>
